<svg id="Ebene_1" data-name="Ebene 1" xmlns="http://www.w3.org/2000/svg" viewBox="0 0 1848.01 282">
    <defs>
        <style>.cls-1 {
            fill: #fff;
        }

        .cls-2 {
            fill: #dc2626;
        }</style>
    </defs>
    <path class="cls-1" d="M1449.6.7c-.4.3-.7,63.8-.7,141V282h15V0h-6.8C1453.3,0,1449.9.3,1449.6.7Z"/>
    <path class="cls-1"
          d="M478.4,1.6c-33.3,5.1-59.2,17.9-82.1,40.8-22.1,22.2-35.3,47.7-40.1,78.1-1.2,7.4-1.4,14-1,26,.8,23.1,4.2,36.6,14.3,57,18.4,37.3,52.9,64.8,94.3,75.3,9.8,2.5,12.1,2.7,31.6,2.7,22.4,0,25.9-.5,43-5.7,13.9-4.2,25.1-9.9,40.8-20.9.8-.6-7.2-8.9-9.3-9.7-.4-.2-2.8,1.1-5.3,2.8-19.7,13.3-45.1,19.7-73.7,18.7-21-.7-34.6-4-51.5-12.4A125.5,125.5,0,0,1,372.3,168c-2.6-11.9-2.6-40-.1-51.8,5.6-25.4,16.3-45,34.6-63.3C430,29.6,456.1,18,488.9,16.4c30.7-1.6,59.3,6.1,79.8,21.5l3.3,2.4,5-4.9,4.9-4.9-5.5-4A130,130,0,0,0,527.9,4.3c-8.6-2-13.8-2.5-28.5-2.8C489.5,1.3,480.1,1.4,478.4,1.6Z"/>
    <path class="cls-1"
          d="M1301.7,120.2l-.3,119.1L1195.9,124.4c-58-63.2-107.1-116.7-109.2-118.9l-3.7-4-.1,140.2V282h15V162c0-70.2.4-120,.9-120s49.8,53.8,109.6,119.5S1317.3,281,1317.5,281s.4-63,.4-140V1h-16Z"/>
    <path class="cls-1"
          d="M1686.9,2.5c-51.3,8.5-94.6,46-110.9,96.2-4.7,14.6-6.4,26-6.5,43.3,0,24.2,3.8,40.9,14,61.5,21,42.4,60.2,71.1,106.3,77.6,13.4,1.9,39.2.6,51.9-2.5,50.4-12.6,91-53.8,102.7-104.1,3.9-16.6,4.7-37.4,2.1-53.6C1837,62,1794.1,16.2,1736.4,3.4,1726.5,1.2,1697.9.7,1686.9,2.5Zm40.3,15c24.4,3.7,47,15.1,66,33.4A123.5,123.5,0,0,1,1820,87.5c23.6,48,13.9,104.7-24.6,143-18.7,18.6-42.4,31-67,35-65.4,10.6-128-33.4-141.5-99.7-2.6-12.3-2.8-33.1-.6-45.8,6.9-38.9,32.4-72.8,68.4-90.9A119.78,119.78,0,0,1,1727.2,17.5Z"/>
    <path class="cls-1"
          d="M82.5,112.8C52.8,173.7,22.1,236.7,14.3,252.7L0,282H14.5L75.4,157.5C108.9,89,136.6,33,136.9,33s28,56,61.5,124.5L259.3,282h14.5l-13.3-27.3C167,62.8,137.3,2,136.9,2S112.1,51.8,82.5,112.8Z"/>
    <path class="cls-2"
          d="M818.6,3.2c-2.4,1.9-3.8,6.4-2.8,9,1.7,4.5,4.1,5.5,14.3,6.2,50.7,3.4,94.1,36.3,109.7,83.2,4.9,14.6,6.3,23.5,6.4,38.9q.15,51.3-36.2,87.6Q874,264,823.4,264c-33.7,0-62.8-12.1-86.5-35.9-22-22.1-33.6-47.7-35.9-79.5-.7-10.2-1-11.1-3.5-13.3-3.6-3-6.7-2.9-10.7.4l-3.2,2.7.6,11.6c3.4,62.4,49.1,114.9,111.9,128.7,11.9,2.6,42.8,2.5,54.7-.1,44.1-9.6,79.3-37,98.6-76.6,9.3-19.2,13.5-37.9,13.5-60.5,0-23.8-4.4-42.5-15-63.3A140,140,0,0,0,845.4,3.5C834.2,1.7,820.9,1.5,818.6,3.2Z"/>
    <path class="cls-2"
          d="M805.9,33.5a111.29,111.29,0,0,0-72.3,45.6c-6.5,9.2-13.3,23.9-16.4,35.6-2.3,8.7-2.7,11.7-2.7,26.8-.1,14.8.2,18.2,2.3,26,10.6,40.2,41,70.6,81,80.8,7.3,1.8,11.3,2.2,26.1,2.2,16,0,18.4-.3,27.4-2.8,23.4-6.5,43.2-19.4,57.9-37.7,14.7-18.5,23.7-42.8,23.7-64.5,0-9.1-1-11-6.8-12.1-2.6-.5-3.6-.1-6,2.2-2.6,2.6-2.9,3.8-3.5,11.9-3,41.6-33.4,76.6-73.9,84.9-9.9,2-27.6,2.1-37.6,0-36.8-7.5-67.6-39.5-73.3-76.4-1.6-10.5-.6-29.6,2.1-39,5.1-18,17.2-36.4,31.6-47.8,16.4-13,31.6-18.6,55.6-20.8,5.7-.5,7.1-1,8.8-3.1a9.21,9.21,0,0,0,2-4.5c0-2.7-2.6-7.4-4.5-8.2C824.8,31.7,814.2,32.1,805.9,33.5Z"/>
    <path class="cls-2"
          d="M820.4,62.9c-3.3,1.4-4.7,3.8-4.7,7.8,0,4.8,3.7,8.3,8.8,8.3a72.69,72.69,0,0,1,11.1,1.6c34.3,7.1,56,39.9,48.8,73.8a62.48,62.48,0,0,1-48.8,48c-14.1,2.9-25.7,1.3-39.5-5.5-19.2-9.4-31.6-27.1-34.3-48.9-.6-5.2-1.7-10.5-2.5-11.7-3-4.8-12.6-3.2-14,2.3-1.1,4.2.3,17.3,2.7,24.9a80.28,80.28,0,0,0,54.4,54.1c7.7,2.2,10.9,2.6,21.5,2.6s13.8-.4,21.5-2.6a80.18,80.18,0,0,0,55.1-57.1c2.4-9.2,2.5-28.6.2-37-8.3-30.4-30.3-52.4-59.1-59C833.2,62.6,822.8,61.8,820.4,62.9Z"/>
</svg>
