<?xml version="1.0" standalone="no"?>
<!DOCTYPE svg PUBLIC "-//W3C//DTD SVG 20010904//EN"
 "http://www.w3.org/TR/2001/REC-SVG-20010904/DTD/svg10.dtd">
<svg version="1.0" xmlns="http://www.w3.org/2000/svg"
 width="1850.000000pt" height="422.000000pt" viewBox="0 0 1850.000000 422.000000"
 preserveAspectRatio="xMidYMid meet">

<g transform="translate(0.000000,422.000000) scale(0.100000,-0.100000)"
fill="#000000" stroke="none">
<path d="M14507 4213 c-4 -3 -7 -638 -7 -1410 l0 -1403 75 0 75 0 0 1410 0
1410 -68 0 c-38 0 -72 -3 -75 -7z"/>
<path d="M4795 4204 c-333 -51 -592 -179 -821 -408 -221 -222 -353 -477 -401
-781 -12 -74 -14 -140 -10 -260 8 -231 42 -366 143 -570 184 -373 529 -648
943 -753 98 -25 121 -27 316 -27 224 0 259 5 430 57 139 42 251 99 408 209 8
6 -72 89 -93 97 -4 2 -28 -11 -53 -28 -197 -133 -451 -197 -737 -187 -210 7
-346 40 -515 124 -345 172 -589 485 -671 863 -26 119 -26 400 -1 518 56 254
163 450 346 633 232 233 493 349 821 365 307 16 593 -61 798 -215 l33 -24 50
49 49 49 -55 40 c-147 108 -305 180 -485 222 -86 20 -138 25 -285 28 -99 2
-193 1 -210 -1z"/>
<path d="M13028 3018 l-3 -1191 -1055 1149 c-580 632 -1071 1167 -1092 1189
l-37 40 -1 -1402 0 -1403 75 0 75 0 0 1200 c0 702 4 1200 9 1200 5 0 498 -538
1096 -1195 598 -657 1089 -1195 1091 -1195 2 0 4 630 4 1400 l0 1400 -80 0
-80 0 -2 -1192z"/>
<path d="M16880 4195 c-513 -85 -946 -460 -1109 -962 -47 -146 -64 -260 -65
-433 0 -242 38 -409 140 -615 210 -424 602 -711 1063 -776 134 -19 392 -6 519
25 504 126 910 538 1027 1041 39 166 47 374 21 536 -95 589 -524 1047 -1101
1175 -99 22 -385 27 -495 9z m403 -150 c244 -37 470 -151 660 -334 118 -114
196 -220 268 -366 236 -480 139 -1047 -246 -1430 -187 -186 -424 -310 -670
-350 -654 -106 -1280 334 -1415 997 -26 123 -28 331 -6 458 69 389 324 728
684 909 228 114 474 154 725 116z"/>
<path d="M836 3092 c-297 -609 -604 -1239 -682 -1399 l-143 -293 73 0 72 0
609 1245 c335 685 612 1245 615 1245 3 0 280 -560 615 -1245 l609 -1245 73 0
72 0 -133 273 c-935 1919 -1232 2527 -1236 2527 -3 0 -248 -498 -544 -1108z"/>
<path d="M8197 4188 c-24 -19 -38 -64 -28 -90 17 -45 41 -55 143 -62 507 -34
941 -363 1097 -832 49 -146 63 -235 64 -389 1 -342 -120 -634 -362 -876 -240
-239 -528 -359 -866 -359 -337 0 -628 121 -865 359 -220 221 -336 477 -359
795 -7 102 -10 111 -35 133 -36 30 -67 29 -107 -4 l-32 -27 6 -116 c34 -624
491 -1149 1119 -1287 119 -26 428 -25 547 1 441 96 793 370 986 766 93 192
135 379 135 605 0 238 -44 425 -150 633 -202 398 -584 676 -1025 747 -112 18
-245 20 -268 3z"/>
<path d="M8070 3885 c-291 -49 -551 -213 -723 -456 -65 -92 -133 -239 -164
-356 -23 -87 -27 -117 -27 -268 -1 -148 2 -182 23 -260 106 -402 410 -706 810
-808 73 -18 113 -22 261 -22 160 0 184 3 274 28 234 65 432 194 579 377 147
185 237 428 237 645 0 91 -10 110 -68 121 -26 5 -36 1 -60 -22 -26 -26 -29
-38 -35 -119 -30 -416 -334 -766 -739 -849 -99 -20 -276 -21 -376 0 -368 75
-676 395 -733 764 -16 105 -6 296 21 390 51 180 172 364 316 478 164 130 316
186 556 208 57 5 71 10 88 31 11 14 20 34 20 45 0 27 -26 74 -45 82 -26 9
-132 5 -215 -9z"/>
<path d="M8215 3591 c-33 -14 -47 -38 -47 -78 0 -48 37 -83 88 -83 19 0 69 -7
111 -16 343 -71 560 -399 488 -738 -51 -241 -243 -430 -488 -480 -141 -29
-257 -13 -395 55 -192 94 -316 271 -343 489 -6 52 -17 105 -25 117 -30 48
-126 32 -140 -23 -11 -42 3 -173 27 -249 81 -264 280 -462 544 -541 77 -22
109 -26 215 -26 106 0 138 4 215 26 273 81 481 297 551 571 24 92 25 286 2
370 -83 304 -303 524 -591 590 -84 19 -188 27 -212 16z"/>
<path d="M3550 563 c0 -5 59 -131 132 -281 92 -191 134 -268 140 -258 6 10
-34 99 -124 281 -117 233 -147 286 -148 258z"/>
<path d="M3822 561 c14 -37 264 -541 268 -541 9 0 261 542 255 548 -10 10 -21
-10 -136 -250 -62 -131 -116 -238 -119 -238 -3 0 -60 110 -128 245 -67 135
-127 245 -133 245 -6 0 -9 -4 -7 -9z"/>
<path d="M4510 285 l0 -285 165 0 c139 0 165 2 165 15 0 12 -26 15 -152 17
l-153 3 -3 118 -3 117 136 0 c178 0 180 18 3 22 l-133 3 -3 123 -3 122 156 0
c131 0 155 2 155 15 0 13 -25 15 -165 15 l-165 0 0 -285z"/>
<path d="M5767 563 c-11 -10 -8 -344 3 -402 5 -29 20 -66 31 -83 65 -91 264
-90 332 3 30 42 37 93 37 297 0 161 -2 192 -14 192 -13 0 -15 -36 -18 -219 -3
-205 -4 -221 -24 -248 -35 -47 -80 -67 -150 -66 -70 1 -113 20 -148 66 -20 27
-21 43 -24 248 -3 201 -6 231 -25 212z"/>
<path d="M6280 555 c0 -12 18 -15 105 -15 l105 0 2 -267 c2 -170 7 -268 13
-268 6 0 11 98 13 268 l2 267 105 0 c87 0 105 3 105 15 0 13 -32 15 -225 15
-193 0 -225 -2 -225 -15z"/>
<path d="M7016 559 c-97 -15 -190 -101 -217 -202 -46 -171 90 -348 266 -346
112 1 195 52 244 149 71 142 17 308 -122 373 -62 30 -105 36 -171 26z m161
-47 c47 -24 99 -81 121 -131 8 -20 15 -63 15 -96 1 -137 -111 -249 -248 -249
-184 0 -302 195 -219 362 62 124 210 175 331 114z"/>
<path d="M8730 555 c0 -12 18 -15 105 -15 l105 0 2 -267 c2 -170 7 -268 13
-268 6 0 11 98 13 268 l2 267 105 0 c87 0 105 3 105 15 0 13 -32 15 -225 15
-193 0 -225 -2 -225 -15z"/>
<path d="M9292 288 l3 -283 168 -3 c144 -2 167 0 167 13 0 13 -23 15 -155 15
l-155 0 0 120 0 120 135 0 c83 0 135 4 135 10 0 6 -52 10 -135 10 l-135 0 0
125 0 125 155 0 c131 0 155 2 155 15 0 13 -26 15 -170 15 l-170 0 2 -282z"/>
<path d="M9996 558 c4 -7 54 -74 110 -148 l103 -136 3 -134 c4 -181 21 -178
28 5 l5 140 103 136 c56 75 102 139 102 142 0 25 -32 -10 -121 -128 -56 -74
-103 -135 -105 -135 -2 0 -49 61 -105 135 -56 74 -108 135 -116 135 -9 0 -11
-5 -7 -12z"/>
<path d="M10699 559 c-85 -13 -156 -66 -194 -143 -54 -110 -40 -223 37 -311
169 -192 478 -75 478 180 0 175 -148 302 -321 274z m158 -48 c57 -29 111 -95
130 -161 59 -202 -160 -384 -348 -289 -88 44 -138 126 -139 225 0 186 194 309
357 225z"/>
<path d="M11180 357 c0 -204 1 -216 23 -257 32 -61 89 -90 174 -90 74 0 117
16 154 56 43 48 49 82 49 301 0 159 -3 204 -12 201 -10 -4 -14 -60 -18 -219
-5 -221 -8 -235 -52 -276 -48 -45 -171 -50 -232 -9 -55 35 -61 63 -64 294 -2
121 -7 212 -13 212 -5 0 -9 -89 -9 -213z"/>
<path d="M11910 556 c0 -14 20 -16 159 -16 148 0 160 -1 192 -23 48 -32 68
-91 48 -142 -27 -72 -49 -80 -235 -83 l-164 -4 0 -144 c0 -185 18 -194 22 -11
l3 132 160 5 c105 3 168 9 183 18 57 33 80 135 47 206 -29 61 -60 70 -247 74
-149 4 -168 2 -168 -12z"/>
<path d="M12512 288 c2 -180 7 -283 13 -283 6 0 11 53 13 133 l3 132 113 0
113 0 67 -130 c37 -71 71 -132 77 -136 27 -16 16 15 -45 132 -36 69 -66 128
-66 130 0 2 9 4 21 4 36 0 90 32 110 64 13 21 19 50 19 89 0 51 -4 61 -32 93
-43 46 -79 53 -261 54 l-147 0 2 -282z m378 217 c38 -38 47 -88 27 -137 -27
-65 -51 -73 -222 -73 l-150 0 -3 123 -3 123 161 -3 160 -3 30 -30z"/>
<path d="M13305 560 c-87 -14 -166 -74 -207 -159 -17 -35 -22 -63 -22 -116 1
-82 19 -128 71 -186 59 -65 104 -84 203 -84 75 0 91 3 131 27 93 55 138 134
139 243 0 53 -6 82 -24 120 -50 108 -174 174 -291 155z m135 -41 c186 -84 212
-320 49 -439 -100 -72 -225 -58 -315 34 -59 61 -80 118 -71 200 7 66 26 106
78 156 70 68 174 88 259 49z"/>
<path d="M13782 288 c2 -180 7 -283 13 -283 6 0 11 53 13 133 l3 132 134 0
c83 0 135 4 135 10 0 6 -52 10 -135 10 l-135 0 0 125 0 125 155 0 c131 0 155
2 155 15 0 13 -26 15 -170 15 l-170 0 2 -282z"/>
<path d="M14292 288 c2 -182 7 -282 13 -280 16 4 13 554 -3 560 -10 3 -12 -55
-10 -280z"/>
<path d="M14430 555 c0 -12 18 -15 105 -15 l105 0 2 -267 c2 -170 7 -268 13
-268 6 0 11 98 13 268 l2 267 105 0 c87 0 105 3 105 15 0 13 -32 15 -225 15
-193 0 -225 -2 -225 -15z"/>
<path d="M5266 291 c-145 -300 -142 -291 -127 -291 6 0 29 36 51 80 l40 80
170 0 170 0 40 -80 c22 -45 45 -78 50 -75 7 4 -240 527 -259 547 -3 3 -64
-114 -135 -261z m216 49 l77 -160 -159 0 c-88 0 -160 2 -160 5 0 10 155 315
160 315 3 -1 40 -73 82 -160z"/>
<path d="M7500 282 c0 -181 4 -282 10 -282 6 0 10 89 10 246 0 211 2 245 14
241 8 -3 71 -49 140 -102 l125 -96 135 101 c74 55 137 100 140 100 3 0 6 -108
6 -239 0 -150 4 -242 10 -246 6 -3 12 0 15 7 3 7 4 134 3 281 l-3 268 -150
-115 c-82 -64 -153 -116 -156 -116 -5 0 -235 178 -281 218 -17 14 -18 1 -18
-266z"/>
<path d="M8382 291 c-73 -149 -132 -276 -132 -283 0 -21 22 8 60 80 l35 67
170 0 170 0 40 -77 c36 -70 55 -94 55 -70 0 5 -60 132 -133 282 l-133 272
-132 -271z m212 53 c42 -86 76 -158 76 -160 0 -2 -70 -4 -155 -4 -98 0 -155 4
-155 10 0 12 148 310 154 310 3 0 39 -70 80 -156z"/>
<path d="M9750 25 c0 -8 7 -15 15 -15 8 0 15 7 15 15 0 8 -7 15 -15 15 -8 0
-15 -7 -15 -15z"/>
<path d="M14930 25 c0 -8 7 -15 15 -15 8 0 15 7 15 15 0 8 -7 15 -15 15 -8 0
-15 -7 -15 -15z"/>
</g>
</svg>
