<svg id="Layer_1" data-name="Layer 1" xmlns="http://www.w3.org/2000/svg" xmlns:xlink="http://www.w3.org/1999/xlink"
     viewBox="0 0 491.86 72.97">
    <defs>
        <style>.cls-1 {
            fill: url(#linear-gradient);
        }

        .cls-2 {
            fill: url(#linear-gradient-2);
        }

        .cls-3 {
            fill: #ea5b70;
        }

        .cls-4 {
            fill: #fff;
        }</style>
        <linearGradient id="linear-gradient" x1="195.71" y1="52.01" x2="195.34" y2="27.91"
                        gradientUnits="userSpaceOnUse">
            <stop offset="0" stop-color="#80313c"/>
            <stop offset="1" stop-color="#ea5b70"/>
        </linearGradient>
        <linearGradient id="linear-gradient-2" x1="125.41" y1="28.49" x2="143.81" y2="40.55"
                        gradientUnits="userSpaceOnUse">
            <stop offset="0" stop-color="#80313c"/>
            <stop offset="0.04" stop-color="#87343f"/>
            <stop offset="0.34" stop-color="#b24554"/>
            <stop offset="0.61" stop-color="#d05163"/>
            <stop offset="0.84" stop-color="#e3586d"/>
            <stop offset="1" stop-color="#ea5b70"/>
        </linearGradient>
    </defs>
    <title>White</title>
    <path class="cls-1"
          d="M210,39.79l-.17-25.29A14.59,14.59,0,0,0,195.25,0h-6.06l0,46.15A6.17,6.17,0,0,1,183,52.3h-2C189.52,52.29,210,54.51,210,39.79Z"/>
    <path class="cls-2"
          d="M210,39.79c0,14.72-20.49,12.5-29,12.5L137.11,52A15.74,15.74,0,0,1,124,44.72L107.1,19.06,95.49,36.81l13,21.57a32.22,32.22,0,0,0,27,14.58l53.61,0v0h7.43a13.56,13.56,0,0,0,13.57-13.65Z"/>
    <path class="cls-3" d="M16,0H0L42.92,67.44A11.92,11.92,0,0,0,53,73H71.65L28.2,6.6A14.57,14.57,0,0,0,16,0Z"/>
    <path class="cls-3"
          d="M182,0,135.53,0a32.24,32.24,0,0,0-27,14.58l-18.31,28L66.68,6.6A14.6,14.6,0,0,0,54.47,0h-16L77.72,61.67l4.35,6.83A9.67,9.67,0,0,0,90.22,73h0a9.69,9.69,0,0,0,8.16-4.47l4.34-6.83L124,28.25A15.7,15.7,0,0,1,137.11,21L182,20.6Z"/>
    <path class="cls-4"
          d="M294,15.75l-13.21,39.1h-8.61l-8.71-26.21-8.67,26.21h-8.61l-13.26-39.1h9.88l8.14,26.68,8.24-26.68h8.55L276,42.43l8.08-26.68Z"/>
    <path class="cls-4"
          d="M320.93,43.59H301.18c.52,3,2.11,4.76,5.54,4.76a7.41,7.41,0,0,0,5.81-2.64l7,3.38c-2.49,3.75-7.08,6.28-12.68,6.28-9.09,0-15.16-5.81-15.16-14.63,0-9.08,5.86-15.21,14.74-15.21S321.15,31.28,321.15,40A34.94,34.94,0,0,1,320.93,43.59Zm-19.7-6h10.51c-.58-3.27-2.32-5-5.33-5S301.81,34.35,301.23,37.57Z"/>
    <path class="cls-4"
          d="M323.4,35.19c0-12,7.92-20,19.76-20a19.09,19.09,0,0,1,14.73,6.34l-2.53,2.58a15.54,15.54,0,0,0-12.05-5.6c-9.4,0-15.69,6.66-15.69,16.64s6.24,16.86,15.59,16.86a15.37,15.37,0,0,0,13.05-6.82L359,47.77a19.16,19.16,0,0,1-15.84,7.6C331.32,55.37,323.4,47.29,323.4,35.19Z"/>
    <path class="cls-4"
          d="M361.28,40.9c0-8.72,5.76-14.53,14.32-14.53s14.21,5.81,14.21,14.53S384.1,55.37,375.6,55.37,361.28,49.56,361.28,40.9Zm24.51,0c0-6.76-4.07-11.2-10.19-11.2s-10.31,4.44-10.31,11.2,4.12,11.2,10.31,11.2S385.79,47.61,385.79,40.9Z"/>
    <path class="cls-4"
          d="M421.27,13.64V54.85h-3.7l-.1-6c-1.9,4-5.6,6.55-11.15,6.55-7.82,0-13.42-5.75-13.42-14.42s5.6-14.58,13.42-14.58c5.55,0,9.25,2.59,11.15,6.55V13.64Zm-3.8,27.26c0-6.71-4.12-11.2-10.25-11.2s-10.3,4.49-10.3,11.25S401,52.1,407.22,52.1,417.47,47.61,417.47,40.9Z"/>
    <path class="cls-4"
          d="M452.52,42.27H430.23c.47,6.08,3.75,10,9.29,10a11.15,11.15,0,0,0,9-4.75l2.9,1.63a13.91,13.91,0,0,1-11.94,6.18c-8,0-13.36-5.81-13.36-14.52s5.28-14.48,13.26-14.48S452.57,32,452.57,40.53C452.57,41,452.57,41.85,452.52,42.27Zm-22.29-2.69h18.38c-.32-6.23-3.8-10.14-9.19-10.14S430.59,33.35,430.23,39.58Z"/>
    <path class="cls-4" d="M457.65,15.75H467v39.1h-9.3Z"/>
    <path class="cls-4"
          d="M491.86,46.76V54a19.2,19.2,0,0,1-7.5,1.42c-5.6,0-9.4-3.85-9.4-9.61V33.4h-4.6V26.06H475V17.6h9v8.46h7.5V33.4h-7.5V43.86c0,2.27,1.37,3.8,3.32,3.8A11.74,11.74,0,0,0,491.86,46.76Z"/>
</svg>
