<?xml version="1.0" standalone="no"?>
<!DOCTYPE svg PUBLIC "-//W3C//DTD SVG 20010904//EN"
 "http://www.w3.org/TR/2001/REC-SVG-20010904/DTD/svg10.dtd">
<svg version="1.0" xmlns="http://www.w3.org/2000/svg"
 width="770.000000pt" height="770.000000pt" viewBox="0 0 770.000000 770.000000"
 preserveAspectRatio="xMidYMid meet">
<metadata>
Created by potrace 1.14, written by Peter Selinger 2001-2017
</metadata>
<g transform="translate(0.000000,770.000000) scale(0.100000,-0.100000)"
fill="#000000" stroke="none">
<path d="M3740 7679 c-51 -30 -89 -68 -113 -114 -30 -56 -30 -173 1 -231 26
-51 94 -110 141 -125 20 -6 122 -14 226 -19 241 -10 402 -33 645 -92 582 -139
1128 -446 1560 -878 280 -279 485 -566 652 -910 39 -80 74 -154 78 -165 4 -11
18 -45 30 -75 36 -88 107 -312 130 -407 11 -48 24 -106 30 -128 45 -198 65
-400 65 -675 0 -249 -7 -346 -41 -545 -37 -216 -103 -459 -169 -625 -19 -48
-35 -90 -35 -93 0 -8 -66 -150 -102 -222 -180 -353 -358 -598 -642 -880 -393
-391 -806 -645 -1336 -821 -47 -16 -55 -18 -180 -52 -426 -113 -901 -137
-1335 -66 -125 20 -320 63 -390 85 -154 48 -312 103 -320 110 -5 5 -15 9 -21
9 -24 0 -327 146 -404 195 -22 14 -42 25 -45 25 -8 0 -242 157 -310 209 -196
148 -441 386 -596 578 -468 583 -728 1301 -740 2048 -3 184 -93 285 -254 285
-111 0 -192 -49 -239 -146 -28 -57 -28 -57 -23 -218 6 -173 17 -293 40 -451
17 -112 61 -334 75 -380 6 -16 18 -59 27 -95 130 -482 402 -1003 739 -1410
102 -124 375 -398 496 -499 156 -131 435 -330 510 -364 8 -4 38 -21 65 -37 60
-37 345 -180 356 -180 5 0 32 -11 61 -25 62 -29 156 -64 283 -106 124 -40 163
-51 350 -97 117 -29 390 -72 459 -72 36 0 55 -4 51 -10 -11 -18 714 -6 815 13
47 9 105 19 130 22 111 15 305 58 460 102 144 42 368 120 385 135 5 4 15 8 23
8 19 0 336 156 446 219 816 474 1440 1236 1735 2121 26 77 36 111 76 250 12
41 31 128 56 250 12 63 38 225 46 285 8 69 8 809 -1 870 -55 411 -143 738
-289 1080 -286 671 -766 1252 -1387 1677 -200 137 -470 284 -675 367 -44 17
-89 36 -100 41 -96 43 -512 163 -607 175 -23 3 -58 9 -77 15 -64 16 -255 43
-299 41 -24 -1 -41 3 -38 7 3 5 -95 9 -217 10 -208 1 -224 0 -257 -19z"/>
<path d="M3593 6865 c-94 -7 -176 -16 -182 -19 -6 -4 -37 -10 -68 -13 -32 -3
-68 -9 -81 -14 -13 -5 -34 -9 -47 -9 -12 0 -47 -7 -76 -16 -30 -8 -76 -22
-104 -30 -73 -21 -225 -70 -260 -84 -16 -7 -43 -19 -60 -26 -16 -7 -55 -23
-85 -36 -60 -25 -215 -103 -270 -136 -19 -12 -54 -31 -77 -43 -24 -13 -43 -26
-43 -31 0 -4 -5 -8 -11 -8 -6 0 -28 -13 -49 -30 -21 -16 -41 -30 -45 -30 -3 0
-23 -12 -43 -27 -20 -16 -41 -31 -47 -35 -10 -8 -62 -50 -145 -117 -68 -55
-303 -288 -343 -340 -20 -25 -54 -66 -77 -91 -22 -25 -40 -49 -40 -53 0 -4 -9
-18 -21 -30 -29 -31 -146 -206 -165 -247 -4 -8 -13 -22 -20 -30 -28 -34 -193
-373 -200 -410 0 -3 -8 -21 -16 -40 -9 -19 -28 -73 -43 -120 -15 -47 -34 -102
-41 -123 -8 -20 -14 -50 -14 -65 0 -15 -4 -32 -9 -37 -6 -6 -14 -35 -20 -65
-5 -30 -13 -68 -16 -85 -91 -478 -70 -956 62 -1425 9 -30 20 -66 25 -80 6 -14
18 -50 28 -80 10 -30 22 -66 28 -80 6 -14 20 -50 32 -80 24 -60 119 -255 152
-310 11 -19 28 -48 37 -65 30 -55 74 -120 82 -123 5 -2 9 -8 9 -14 0 -8 49
-79 98 -143 4 -5 30 -39 57 -75 27 -36 128 -144 225 -241 168 -169 325 -298
505 -414 65 -43 71 -46 160 -95 33 -18 83 -45 112 -61 29 -16 59 -29 67 -29 9
0 16 -4 16 -9 0 -5 10 -12 23 -16 12 -3 33 -11 47 -17 14 -6 41 -18 60 -26 19
-8 47 -21 62 -29 14 -7 35 -13 45 -13 10 0 23 -4 29 -9 9 -8 51 -22 174 -57
30 -9 75 -22 100 -30 25 -8 55 -14 68 -14 13 0 31 -4 40 -9 9 -5 43 -11 75
-15 32 -3 63 -9 68 -12 6 -3 52 -10 102 -15 51 -4 135 -13 187 -18 119 -13
276 -13 403 -1 53 6 139 14 191 19 52 5 100 12 106 16 7 4 30 9 52 10 78 6
355 79 473 125 11 4 40 15 65 25 47 18 71 28 155 65 27 12 59 26 70 31 11 5
27 13 35 18 47 27 98 53 123 62 15 6 27 15 27 20 0 5 6 9 13 9 8 0 33 14 55
30 23 17 45 30 48 30 3 0 20 10 37 23 17 12 39 27 49 32 26 15 170 120 194
141 12 11 44 37 70 59 134 110 444 442 444 474 0 6 4 11 8 11 14 0 143 189
224 328 50 84 153 301 193 402 9 25 21 53 26 62 5 10 9 24 9 33 0 8 6 29 14
47 29 71 84 275 100 373 3 17 9 55 15 85 43 223 55 532 24 598 -23 51 -63 103
-74 96 -5 -3 -9 -1 -9 5 0 6 -18 20 -40 31 -60 30 -187 29 -238 -4 -55 -35
-88 -67 -106 -103 -17 -34 -33 -157 -40 -323 -6 -116 -20 -219 -42 -296 -8
-28 -14 -60 -14 -71 0 -11 -6 -39 -14 -64 -64 -207 -67 -215 -106 -314 -14
-34 -71 -159 -80 -175 -5 -8 -25 -45 -44 -82 -19 -37 -61 -107 -93 -155 -32
-48 -57 -90 -56 -93 1 -3 -4 -8 -11 -12 -7 -4 -26 -26 -42 -50 -110 -161 -455
-490 -589 -560 -11 -6 -22 -14 -25 -17 -6 -9 -126 -83 -165 -103 -104 -53
-195 -98 -230 -112 -22 -10 -53 -24 -68 -32 -16 -8 -35 -14 -42 -14 -7 0 -26
-6 -42 -14 -15 -8 -55 -22 -88 -31 -33 -10 -73 -21 -90 -26 -304 -88 -623
-111 -975 -70 -140 16 -208 31 -460 103 -19 5 -48 16 -63 24 -16 8 -35 14 -42
14 -7 0 -26 6 -42 14 -15 8 -46 22 -68 32 -99 41 -274 133 -358 187 -31 20
-61 37 -66 37 -5 0 -11 7 -15 15 -3 8 -12 15 -20 15 -7 0 -16 7 -20 15 -3 8
-12 15 -20 15 -8 0 -16 3 -18 8 -1 4 -23 23 -48 42 -156 121 -367 338 -470
483 -18 26 -37 47 -42 47 -4 0 -8 4 -8 9 0 6 -27 54 -61 107 -53 83 -165 298
-189 359 -34 90 -43 113 -52 135 -31 77 -75 246 -112 430 -29 146 -38 396 -22
600 18 209 24 248 78 455 24 94 110 332 137 383 6 9 21 40 34 67 59 124 226
389 280 447 12 12 40 45 62 73 124 154 357 358 560 490 92 60 245 141 345 183
30 13 69 29 85 36 56 25 110 44 170 61 33 9 69 20 80 24 28 11 114 33 150 38
17 2 59 10 95 18 75 16 248 33 399 39 57 2 108 9 114 15 6 6 18 11 27 11 21 0
82 57 111 105 20 34 24 53 24 125 0 72 -4 91 -24 124 -52 83 -92 110 -188 125
-81 12 -66 13 -300 -4z"/>
<path d="M3819 6030 c-63 -8 -136 -55 -163 -105 -11 -22 -24 -42 -28 -45 -15
-11 -19 -109 -7 -152 7 -24 13 -45 13 -48 3 -17 63 -82 96 -104 22 -14 40 -24
40 -22 0 3 15 0 33 -5 17 -5 73 -12 122 -14 50 -3 108 -8 130 -11 22 -3 47 -5
55 -6 8 0 22 -2 30 -6 8 -3 24 -6 35 -7 32 -3 88 -15 97 -21 5 -3 21 -7 36
-10 15 -2 36 -8 47 -13 11 -5 48 -19 83 -30 34 -12 70 -25 80 -30 9 -5 44 -22
77 -39 84 -42 163 -86 183 -103 10 -8 36 -26 60 -42 23 -15 42 -32 42 -38 0
-5 4 -8 8 -5 18 11 302 -270 302 -298 0 -4 12 -19 26 -34 14 -15 32 -39 40
-54 8 -15 28 -47 44 -72 17 -24 37 -59 44 -78 8 -18 18 -37 23 -41 4 -5 8 -12
8 -15 1 -4 6 -17 13 -29 7 -13 9 -23 5 -23 -4 0 -3 -4 3 -8 5 -4 21 -36 33
-72 13 -36 27 -74 31 -85 11 -28 38 -132 46 -180 4 -22 9 -44 10 -50 10 -34
16 -91 17 -177 1 -54 6 -98 10 -98 5 0 5 -5 1 -11 -3 -6 -8 -61 -10 -121 -2
-60 -9 -118 -14 -129 -8 -13 -7 -19 0 -19 7 0 8 -6 1 -17 -5 -10 -14 -45 -21
-78 -7 -33 -15 -64 -18 -70 -3 -5 -7 -22 -9 -39 -2 -16 -7 -34 -12 -40 -5 -6
-12 -27 -16 -46 -4 -19 -13 -42 -20 -50 -10 -12 -23 -48 -29 -80 -1 -3 -4 -10
-8 -16 -4 -6 -23 -42 -43 -80 -34 -63 -144 -233 -169 -260 -6 -7 -40 -46 -76
-87 -36 -42 -68 -76 -71 -76 -3 -1 -30 -24 -59 -52 -30 -28 -70 -62 -90 -75
-19 -14 -64 -45 -99 -69 -70 -49 -168 -102 -271 -148 -40 -17 -123 -49 -130
-49 -3 0 -15 -4 -28 -9 -13 -5 -29 -9 -36 -9 -8 0 -31 -6 -53 -14 -22 -8 -57
-17 -79 -20 -21 -4 -50 -9 -64 -11 -82 -16 -328 -22 -445 -10 -33 3 -70 6 -82
7 -13 1 -23 5 -23 9 0 4 -6 6 -12 5 -36 -3 -118 16 -112 26 4 7 3 8 -5 4 -12
-8 -149 30 -165 45 -6 5 -17 9 -26 9 -26 0 -238 108 -320 163 -41 28 -97 68
-125 90 -75 60 -235 220 -235 234 0 7 -4 13 -9 13 -10 0 -91 105 -91 119 0 5
-4 11 -9 13 -32 13 -202 356 -207 419 -1 9 -4 21 -8 28 -8 12 -35 110 -42 151
-2 14 -7 36 -9 50 -15 76 -18 112 -19 182 -1 43 -3 78 -6 78 -3 0 -5 14 -4 31
2 80 -52 171 -129 216 -49 30 -162 31 -218 3 -58 -30 -107 -84 -120 -134 -6
-23 -14 -48 -17 -56 -8 -24 -8 -74 1 -92 5 -12 4 -18 -4 -18 -8 0 -9 -4 0 -13
8 -10 7 -17 -2 -27 -7 -8 -7 -10 -1 -7 8 5 12 -8 13 -36 3 -79 14 -180 26
-227 3 -14 9 -38 11 -55 3 -16 12 -54 20 -84 7 -29 11 -58 8 -62 -3 -5 -1 -9
4 -9 6 0 13 -17 17 -37 4 -21 11 -43 16 -49 5 -6 10 -19 12 -30 2 -10 10 -32
16 -49 7 -16 14 -34 15 -40 4 -24 120 -255 128 -255 4 0 8 -7 8 -14 0 -8 14
-35 30 -59 17 -25 30 -50 30 -56 0 -6 3 -11 8 -11 4 0 18 -18 32 -40 14 -22
28 -40 32 -40 5 0 8 -7 8 -15 0 -8 4 -15 8 -15 4 0 15 -12 25 -27 9 -16 30
-44 47 -63 40 -44 210 -220 210 -216 0 2 19 -14 43 -36 40 -37 143 -118 183
-146 186 -124 382 -220 579 -282 39 -13 77 -25 85 -28 8 -3 20 -6 25 -7 6 -1
12 -3 15 -4 3 -2 19 -5 35 -7 17 -3 37 -7 45 -11 8 -3 23 -5 33 -4 9 1 17 -2
17 -6 0 -5 12 -8 27 -7 14 0 45 -3 67 -8 55 -11 212 -22 311 -22 126 0 275 8
275 15 0 7 17 9 87 12 24 1 43 6 43 10 0 4 6 7 13 5 6 -1 21 1 32 5 11 3 34 9
50 12 17 3 35 7 40 9 6 1 30 8 55 15 83 21 270 93 270 103 0 5 4 7 8 4 7 -4
44 12 149 67 18 10 36 18 40 19 5 1 13 5 18 10 24 19 148 98 155 98 3 0 17 11
30 25 13 14 29 25 37 25 7 0 13 4 13 9 0 4 17 20 38 33 66 45 280 261 352 357
14 18 30 38 37 45 22 24 123 184 123 195 0 6 4 11 9 11 8 0 90 159 104 203 4
9 11 17 17 17 6 0 9 3 7 8 -3 4 0 18 6 32 5 14 11 30 13 35 1 6 12 34 23 63
12 28 18 52 13 52 -4 0 -2 4 5 8 6 4 14 19 16 32 2 14 9 37 15 51 6 15 14 44
17 65 4 22 9 46 12 54 6 15 9 33 17 85 3 17 7 41 9 55 13 70 18 126 22 238 2
67 7 127 10 132 4 6 2 10 -2 10 -5 0 -9 26 -8 58 0 67 -11 196 -20 232 -4 14
-8 44 -8 67 -1 24 -5 43 -9 43 -3 0 -10 19 -14 43 -10 53 -9 48 -17 72 -3 11
-8 31 -11 45 -7 40 -11 55 -16 60 -7 7 -40 99 -46 130 -3 13 -9 27 -13 30 -5
3 -12 16 -16 30 -19 62 -142 290 -192 356 -13 17 -23 36 -23 42 0 7 -4 12 -8
12 -5 0 -30 29 -56 65 -112 152 -265 303 -446 439 -36 27 -75 53 -87 59 -13 6
-23 13 -23 17 0 4 -8 10 -17 14 -10 3 -31 15 -48 25 -44 29 -262 135 -320 157
-27 10 -52 20 -55 23 -3 4 -16 7 -30 9 -14 2 -38 10 -54 18 -16 8 -38 14 -48
14 -11 0 -27 4 -37 9 -17 10 -59 19 -94 20 -10 1 -16 4 -14 9 3 4 -7 7 -21 8
-15 0 -52 4 -82 8 -30 5 -61 9 -67 9 -7 0 -13 3 -13 6 0 6 -50 9 -200 14 -36
1 -86 0 -111 -3z"/>
</g>
</svg>
